# xmcd
#
# Track frame offsets:
#	151
#	27858
#	49329
#	79871
#
# Disc length: 1436 seconds
#
# Revision: 1
# Processed by: cddbd v1.5.1PL0 Copyright (c) Steve Scherf et al.
# Submitted via: CDex 1.50Beta5
#
DISCID=2a059a04
DTITLE=光永亮太 - 君が好きだから
DYEAR=2003
DGENRE=Pop
TTITLE0=君が好きだから
TTITLE1=Joy -A Closer Mix-
TTITLE2=Silence
TTITLE3=君が好きだから (Less Vocal)
EXTD=
EXTT0=
EXTT1=
EXTT2=
EXTT3=
PLAYORDER=
